<svg xmlns="http://www.w3.org/2000/svg" viewBox="30 30 40 40" x="0px" y="0px">
	<polygon points="68.56 55.92 68.49 53.92 59.34 54.24 52 50 59.34 45.76 68.49 46.08 68.56 44.08 62.61 43.87 69.55 39.87 68.55 38.13 61.61 42.14 64.4 36.89 62.64 35.95 58.34 44.03 51 48.27 51 39.79 55.85 32.03 54.15 30.97 51 36.01 51 28 49 28 49 36.01 45.85 30.97 44.15 32.03 49 39.79 49 48.27 41.66 44.03 37.36 35.95 35.6 36.89 38.39 42.14 31.45 38.13 30.45 39.87 37.39 43.87 31.44 44.08 31.51 46.08 40.66 45.76 48 50 40.66 54.24 31.51 53.92 31.44 55.92 37.39 56.13 30.45 60.13 31.45 61.87 38.39 57.86 35.6 63.11 37.36 64.05 41.66 55.97 49 51.73 49 60.21 44.15 67.97 45.85 69.03 49 63.99 49 72 51 72 51 63.99 54.15 69.03 55.85 67.97 51 60.21 51 51.73 58.34 55.97 62.64 64.05 64.4 63.11 61.61 57.86 68.55 61.87 69.55 60.13 62.61 56.13 68.56 55.92" />
</svg>